<svg xmlns="http://www.w3.org/2000/svg" viewBox="0 0 132 132" fill="none" preserveAspectRatio="xMidYMid meet" version="1.2" baseProfile="tiny-ps" xml:space="preserve"><title>Hive Logo</title>
<path fill-rule="evenodd" clip-rule="evenodd" d="M34.8799 23.3444C39.4386 17.7942 47.8195 17.465 52.7998 22.6403L65.9795 36.3356L76.6504 23.3444C81.2091 17.7942 89.59 17.465 94.5703 22.6403L126.743 56.0729C131.024 60.5218 131.23 67.4946 127.22 72.1891L95.6533 109.141L95.4336 109.391C90.8625 114.458 82.9722 114.69 78.1113 109.9L77.8789 109.666L64.9345 96.2037L53.8828 109.141L53.664 109.391C49.093 114.459 41.2028 114.69 36.3418 109.9L36.1084 109.666L4.60349 76.9C0.518942 72.6518 0.140264 66.0935 3.63083 61.4137L3.98142 60.9664L34.8799 23.3444ZM47.7568 27.4938C45.6816 25.3373 42.1885 25.475 40.289 27.7877L9.38962 65.4098C7.78125 67.3685 7.89287 70.2214 9.64938 72.0485L41.1543 104.814C43.2024 106.944 46.6414 106.841 48.5605 104.594L60.0595 91.1334L46.374 76.9C42.2895 72.6518 41.91 66.0935 45.4004 61.4137L45.7509 60.9664L61.5068 41.7819L47.7568 27.4938ZM89.5263 27.4938C87.4512 25.3374 83.959 25.4753 82.0595 27.7877L70.8672 41.4137L84.9736 56.0729C89.2547 60.5218 89.4605 67.4946 85.4502 72.1891L69.5029 90.8551L82.9248 104.814C84.9729 106.943 88.411 106.841 90.33 104.594L121.897 67.6422C123.568 65.6862 123.482 62.7801 121.698 60.9264L89.5263 27.4938ZM51.1591 65.4098C49.551 67.3685 49.6625 70.2214 51.4189 72.0485L64.6279 85.7858L80.1279 67.6422C81.7989 65.6862 81.7125 62.7801 79.9287 60.9264L66.3935 46.861L51.1591 65.4098Z" fill="black"/>
</svg>
